<?xml version="1.0" encoding="UTF-8" standalone="no"?>
<!DOCTYPE svg PUBLIC "-//W3C//DTD SVG 1.1//EN" "http://www.w3.org/Graphics/SVG/1.1/DTD/svg11.dtd">
<svg version="1.1" xmlns="http://www.w3.org/2000/svg" xmlns:xlink="http://www.w3.org/1999/xlink" preserveAspectRatio="xMidYMid meet" viewBox="0 0 640 640" width="640" height="640"><defs><path d="M281.73 3.98L292.16 4.9L302.47 6.18L312.64 7.81L322.66 9.79L332.54 12.09L342.26 14.73L351.81 17.69L361.18 20.96L370.37 24.53L379.36 28.41L388.15 32.57L396.74 37.02L405.1 41.75L413.24 46.75L421.15 52.01L428.81 57.53L436.22 63.29L443.37 69.3L450.26 75.53L456.87 82L463.19 88.68L469.22 95.58L474.95 102.68L480.37 109.98L485.47 117.46L490.25 125.13L494.69 132.98L498.79 140.99L502.54 149.17L505.93 157.5L508.95 165.97L511.6 174.59L513.86 183.33L515.73 192.2L517.2 201.19L518.26 210.29L518.9 219.49L519.12 228.79L518.9 238.09L518.26 247.29L517.2 256.39L515.73 265.38L513.86 274.25L511.6 283L508.95 291.61L505.93 300.09L502.54 308.42L498.79 316.59L494.69 324.6L490.25 332.45L485.47 340.12L480.37 347.61L475.14 354.66L638.47 497.11L568.14 558.46L404.82 416L396.74 420.56L388.15 425.01L379.36 429.18L370.37 433.05L361.18 436.63L351.81 439.9L342.26 442.85L332.54 445.49L322.66 447.8L312.64 449.77L302.47 451.4L292.16 452.68L281.73 453.61L271.18 454.17L260.52 454.35L249.86 454.17L239.31 453.61L228.88 452.68L218.57 451.4L208.4 449.77L198.38 447.8L188.5 445.49L178.78 442.85L169.24 439.9L159.86 436.63L150.68 433.05L141.68 429.18L132.89 425.01L124.3 420.56L115.94 415.83L107.8 410.83L99.89 405.57L92.23 400.06L84.82 394.29L77.67 388.29L70.78 382.05L64.17 375.59L57.85 368.9L51.82 362.01L46.09 354.91L40.67 347.61L35.57 340.12L30.79 332.45L26.35 324.6L22.25 316.59L18.5 308.42L15.11 300.09L12.09 291.61L9.44 283L7.18 274.25L5.31 265.38L3.84 256.39L2.78 247.29L2.14 238.09L1.92 228.79L2.14 219.49L2.78 210.29L3.84 201.19L5.31 192.2L7.18 183.33L9.44 174.59L12.09 165.97L15.11 157.5L18.5 149.17L22.25 140.99L26.35 132.98L30.79 125.13L35.57 117.46L40.67 109.98L46.09 102.68L51.82 95.58L57.85 88.68L64.17 82L70.78 75.53L77.67 69.3L84.82 63.29L92.23 57.53L99.89 52.01L107.8 46.75L115.94 41.75L124.3 37.02L132.89 32.57L141.68 28.41L150.68 24.53L159.86 20.96L169.24 17.69L178.78 14.73L188.5 12.09L198.38 9.79L208.4 7.81L218.57 6.18L228.88 4.9L239.31 3.98L249.86 3.42L260.52 3.23L271.18 3.42L281.73 3.98ZM247.43 90.08L241 90.65L234.64 91.44L228.36 92.44L222.18 93.66L216.08 95.08L210.09 96.71L204.2 98.54L198.41 100.55L192.74 102.76L187.19 105.15L181.77 107.72L176.47 110.47L171.31 113.38L166.29 116.47L161.41 119.71L156.68 123.12L152.11 126.67L147.7 130.38L143.45 134.23L139.37 138.22L135.47 142.34L131.75 146.6L128.21 150.98L124.87 155.48L121.72 160.1L118.77 164.83L116.03 169.67L113.5 174.62L111.19 179.66L109.1 184.8L107.23 190.03L105.6 195.35L104.2 200.74L103.05 206.22L102.14 211.76L101.49 217.38L101.09 223.06L100.96 228.79L101.09 234.53L101.49 240.21L102.14 245.82L103.05 251.37L104.2 256.84L105.6 262.24L107.23 267.55L109.1 272.78L111.19 277.92L113.5 282.97L116.03 287.91L118.77 292.75L121.72 297.48L124.87 302.1L128.21 306.61L131.75 310.99L135.47 315.24L139.37 319.37L143.45 323.36L147.7 327.2L152.11 330.91L156.68 334.47L161.41 337.87L166.29 341.12L171.31 344.2L176.47 347.12L181.77 349.86L187.19 352.43L192.74 354.82L198.41 357.03L204.2 359.05L210.09 360.87L216.08 362.5L222.18 363.92L228.36 365.14L234.64 366.15L241 366.94L247.43 367.51L253.94 367.85L260.52 367.97L267.1 367.85L273.61 367.51L280.04 366.94L286.4 366.15L292.68 365.14L298.86 363.92L304.96 362.5L310.95 360.87L316.84 359.05L322.63 357.03L328.3 354.82L333.85 352.43L339.27 349.86L344.57 347.12L349.73 344.2L354.75 341.12L359.63 337.87L364.36 334.47L368.93 330.91L373.35 327.2L377.59 323.36L381.67 319.37L385.57 315.24L389.29 310.99L392.83 306.61L396.17 302.1L399.32 297.48L402.27 292.75L405.01 287.91L407.54 282.97L409.85 277.92L411.94 272.78L413.81 267.55L415.44 262.24L416.84 256.84L417.99 251.37L418.9 245.82L419.55 240.21L419.95 234.53L420.08 228.79L419.95 223.06L419.55 217.38L418.9 211.76L417.99 206.22L416.84 200.74L415.44 195.35L413.81 190.03L411.94 184.8L409.85 179.66L407.54 174.62L405.01 169.67L402.27 164.83L399.32 160.1L396.17 155.48L392.83 150.98L389.29 146.6L385.57 142.34L381.67 138.22L377.59 134.23L373.35 130.38L368.93 126.67L364.36 123.12L359.63 119.71L354.75 116.47L349.73 113.38L344.57 110.47L339.27 107.72L333.85 105.15L328.3 102.76L322.63 100.55L316.84 98.54L310.95 96.71L304.96 95.08L298.86 93.66L292.68 92.44L286.4 91.44L280.04 90.65L273.61 90.08L267.1 89.73L260.52 89.62L253.94 89.73L247.43 90.08Z" id="cWD5Sz63I"></path></defs><g><g><g><use xlink:href="#cWD5Sz63I" opacity="1" fill="#b19005" fill-opacity="1"></use></g></g></g></svg>